<?xml version="1.0" encoding="utf-8"?>
<!-- Generator: Adobe Illustrator 15.1.0, SVG Export Plug-In . SVG Version: 6.00 Build 0)  -->
<!DOCTYPE svg PUBLIC "-//W3C//DTD SVG 1.1//EN" "http://www.w3.org/Graphics/SVG/1.1/DTD/svg11.dtd">
<svg version="1.1" id="Layer_1" xmlns="http://www.w3.org/2000/svg" xmlns:xlink="http://www.w3.org/1999/xlink" x="0px" y="0px"
	 width="612px" height="792px" viewBox="0 0 612 792" enable-background="new 0 0 612 792" xml:space="preserve">
<g>
	<defs>
		<path id="SVGID_1_" d="M501,217.697c0,53.66,0,107.337,0,160.999c-17.283-0.275-34.357,3.026-48,7.999
			c-6.121,2.232-11.979,5.794-19,7.001c0-8.666,0-17.334,0-26.001c31.463-3.821,51.979-26.188,52-62
			c-14.289-1.916-26.391,0.302-35.998,5.002c0.492-25.664-12.105-35.232-23.002-49.001c-0.332,0-0.666,0-0.998,0
			c0,0.333,0,0.666,0,0.999c-8.77,6.091-16.465,19.935-20.002,31c-1.514,4.74,0.523,13.968-2,18.001
			c-6.93-8.94-21.883-10.136-38-9.999c-0.258,28.59,10.545,48.247,28,59c7.246,4.46,18.707,4.022,26,8.999
			c3.578,5.586,1.135,23.09,1.002,31c-33.59,15.622-63.232,40.28-84.002,69c-7.494,10.363-18.363,21.188-22,35
			c-0.333,0-0.666,0-0.999,0c0-19.331,0-38.668,0-57.999c34.874-7.088,57.872-27.997,57.999-70.001c-16.174-1.012-29.381-0.303-40,6
			c0.516-20.649-13.188-50.309-27-55c0,0.334,0,0.666,0,1c-13.446,12.604-24.598,30.418-23,55c-0.333,0-0.666,0-1,0
			c-7.664-9.657-26.541-12.154-42-10.999c0,0.666,0,1.332,0,1.998c-5.05,7.891,2.727,25.647,5,31
			c9.264,21.813,26.178,40.314,55,42.001c0,19.997,0,40.003,0,60c-0.334,0-0.666,0-1,0c0-0.666,0-1.332,0-2.001
			c-4.77-5.022-6.246-12.944-9.999-19c-8.38-13.513-26.764-37.757-39.001-46.998c-13.712-10.36-27.331-21.769-42-31
			c-3.352-2.111-16.353-6.492-18-9.001c0-10,0-20.001,0-30c1.085-0.908,0.085,0.077,1.001-1
			c34.34-2.055,54.493-29.523,53.999-66.999c-18.918-0.487-28.161,3.371-39,9.999c0.594-26.466-10.96-35.055-21-50
			c-0.333,0-0.666,0-0.999,0c0,0.333,0,0.666,0,0.999c-9.145,4.859-17.592,18.647-21,29.002c-0.999,6.332-2,12.666-3,19
			c-6.924-6.714-22.8-6.554-35-5.002c0.056,35.885,20.515,58.081,52,62c0,8.667,0,17.335,0,26.001c-0.333,0-0.666,0-1.001,0
			c-10.097-8.938-45.023-14.749-63.999-15c0-53.662,0-107.339,0-160.999C241.178,217.716,370.822,217.678,501,217.697L501,217.697z
			 M178.001,272.697c0.666,0,1.333,0,2,0c0,20.664,0,41.335,0,62c-0.335,0-0.668,0-1.001,0c-6.443-9.637-17.578-24.975-12-42.999
			C169.273,284.35,175.559,279.385,178.001,272.697L178.001,272.697z M186,272.697c14.723,10.847,16.119,49.204,0.999,61
			c-0.908,1.084,0.08,0.086-0.999,1C186,314.032,186,293.36,186,272.697L186,272.697z M423,272.697c2.193,3.489,1,12.715,1,17.999
			c0,14.667,0,29.334,0,44c-0.332,0-0.668,0-1,0c0-0.332,0-0.668,0-1c-0.334,0-0.666,0-1,0c-5.611-11.305-14.682-28.328-7.998-46
			C417,282.696,420,277.697,423,272.697L423,272.697z M430,272.697c19.854,8.89,15.93,51.685,0,62
			C430,314.032,430,293.36,430,272.697L430,272.697z M227,308.696c1.334,0,2.667,0,4,0c0,0.666,0,1.332,0,2.001
			c-10.2,6.743-18.642,20.239-26,29.999c-4.059,5.385-11.525,9.107-14,16c-0.333,0-0.666,0-0.999,0c0-2.333,0-4.666,0-7
			c4.739-7.227,4.813-17.866,10-25.001C206.611,315.604,217.659,315.241,227,308.696L227,308.696z M379,308.696
			c24.436,1.441,41.041,21.873,41,48c-0.332,0-0.666,0-0.998,0c0-0.666,0-1.334,0-2c-10.52-6.955-19.42-20.934-27.002-31
			C388.199,318.647,381.322,315.161,379,308.696L379,308.696z M134,311.696c21.216-0.492,30.384,9.945,37.001,24
			c1.05,2.232,6.874,12.475,3.999,17c-3.666-3.333-7.333-6.668-10.999-10C154.001,332.364,144,322.028,134,311.696L134,311.696z
			 M466,311.696c3.334,0,6.666,0,10.002,0c0,0.333,0,0.666,0,0.999c-13.666,13.333-27.338,26.669-41.002,40.001c0-2.334,0-4.667,0-7
			c3.914-5.631,4.221-13.518,8.002-19C448.725,318.393,457.623,317.552,466,311.696L466,311.696z M236,312.695
			c2.39,4.521-2.994,15.054-5,19c-7.37,14.495-18.749,26.797-38,29.002c0-0.335,0-0.668,0-1.001c0.333,0,0.666,0,0.999,0
			C205.361,342.106,224.437,330.017,236,312.695L236,312.695z M373,312.695c7.9,5.233,14.307,14.462,20,22.001
			c6.992,9.254,17.488,16.101,24,26.001c-1,0-2,0-2.998,0c-4.74-3.561-11.973-3.864-17.002-7
			C384.459,345.873,375.166,330.774,373,312.695L373,312.695z M130.001,316.696c12.029,7.873,21.863,20.953,31.999,31
			c3.596,3.564,8.13,5.662,11.001,10c-2,0-4.001,0-6.001,0c-4.667-1.666-9.333-3.333-14-5
			C142.06,345.969,131.861,332.28,130.001,316.696L130.001,316.696z M479,316.696c2.508,4.711-3.037,12.315-4.998,16
			c-6.975,13.097-17.285,24.969-37.002,25c0-0.334,0-0.666,0-1c0.334,0,0.668,0,1.002,0
			C448.475,341.144,468.594,332.385,479,316.696L479,316.696z M309.002,341.697c13.795,8.802,19.152,34.862,10.998,53.999
			c-2.392,5.613-7.18,9.713-10,14.999c-0.332,0-0.666,0-0.998,0C309.002,387.698,309.002,364.694,309.002,341.697L309.002,341.697z
			 M301,342.696c2.303,3.668,1.001,13.5,1.001,19c0,15.998,0,32.001,0,48c-0.333,0-0.668,0-1.001,0c0-0.333,0-0.666,0-0.999
			c-0.333,0-0.666,0-0.999,0C286.291,382.157,284.691,368.04,301,342.696L301,342.696z M251,380.696
			c27.81,3.084,46.147,22.987,47,53c-0.332,0-0.666,0-0.998,0C281.669,416.032,266.332,398.36,251,380.696L251,380.696z
			 M349,384.697c3.668,0,7.334,0,11,0c0,0.333,0,0.666,0,0.999c-15.332,15-30.668,30.001-45.999,45c0-2,0-4,0-6.001
			c4.618-7.064,4.336-16.536,8.999-22.998C330.111,391.843,339.375,391.425,349,384.697L349,384.697z M246,385.696
			c11.066,7.299,21.02,21.435,29,31.999c5.28,6.99,15.841,12.208,19,21.001c-0.666,0-1.332,0-2,0c-5.807-4.034-14.098-4.313-20-8
			C258.479,422.247,248.25,405.329,246,385.696L246,385.696z M362,390.696c2.469,1.295,0.68-0.429,2.002,2
			c-1.668,4.667-3.336,9.334-5,14c-7.662,14.891-20.879,27.666-42.002,29c0-0.333,0-0.666,0-0.999c0.334,0,0.666,0,1,0
			C329.418,417.505,350.584,407.889,362,390.696L362,390.696z M112,395.696c25.192,0.278,46.93,10.085,65,18.001
			c50.966,22.326,87.836,60.845,110,112c7.561,17.445,15.712,37.379,16,62c-6.332,0-12.668,0-19,0
			c-0.389-22.964-8.818-42.461-16-59.001c-22.96-52.887-84.399-112.28-156.999-114C111.334,408.364,111.667,402.03,112,395.696
			L112,395.696z M500.002,395.696c0.332,6.334,0.666,12.668,0.998,19c-24.842,0.43-45.316,10.173-62.998,18.001
			c-50.98,22.564-108.354,84.324-110,155c-6.334,0-12.668,0-19,0c-0.131-27.845,10.184-52.115,19.998-71.001
			c27.807-53.51,66.363-89.104,126-111.001C467.895,400.962,483.197,396.169,500.002,395.696L500.002,395.696z M247.002,587.697
			c-0.455-22.942-9.782-43.105-19.001-58.002c-24.553-39.667-59.713-72.539-117-78.999c-0.019-7.303-0.212-11.815,1-17.999
			c1.334,0,2.667,0,4,0c5.368,3.426,14.33,2.133,21,3.998c13.944,3.901,29.405,8.942,41,16.001
			c46.214,28.143,75.453,71.926,88.001,134c-5.334,0-10.668,0-16.002,0C248.928,587.447,249.055,587.298,247.002,587.697
			L247.002,587.697z M501,450.696c-57.213,6.328-92.555,39.396-117,78.999c-9.211,14.924-18.533,35.038-19,58.002
			c-5.404-0.62-12.248-1.009-19-1.001c0-0.667,0-1.333,0-2.001c2.965-4.517,2.275-11.281,4-17c3.666-10.998,7.334-22.001,11-33
			c21.363-49.277,73.055-97.521,139.002-101.998c0,0.666,0,1.332,0,2C502.055,437.958,501.08,445.355,501,450.696L501,450.696z
			 M111.001,470.697c17.933,1.186,33.01,8.589,44.999,15.998c33.524,20.721,65.48,52.139,71,100.001
			c-6.665,0.333-13.334,0.668-20,1.001c-0.594-16.724-8.281-29.154-14.999-40.001c-17.764-28.678-40.433-51.426-82.001-56.001
			C110.333,484.697,110.668,477.695,111.001,470.697L111.001,470.697z M501,470.697c0.334,6.998,0.666,14,1,20.998
			c-41.518,4.538-64.307,27.329-82,56.001c-6.709,10.874-14.389,23.256-15,40.001c-6.666-0.333-13.334-0.668-20-1.001
			c5.422-47.829,37.508-79.362,71-100.001C468.006,479.298,483.055,471.885,501,470.697L501,470.697z M111.001,509.696
			c32.28,3.745,75.774,43.605,77,78.001c-7.333-0.333-14.668-0.668-22-1.001c-4.982-22.549-30.472-51.149-55-53.999
			C111.001,525.031,111.001,517.362,111.001,509.696L111.001,509.696z M501,509.696c0,7.666,0,15.335,0,23.001
			c-18.688,2.421-34.15,16.409-43,29c-4.436,6.311-7.693,18.719-12,23.999c0,0.333,0,0.666,0,1c-3.666,0-7.332,0-11,0
			c-2.15,1.438-7.307,1.113-11,1.001C425.252,553.253,468.684,513.527,501,509.696L501,509.696z M112,554.696
			c12.691,0.799,31.177,20.294,31.999,33.001c-10.664-0.333-21.333-0.668-31.999-1.001C112,576.03,112,565.362,112,554.696
			L112,554.696z M500.002,554.696c0,10.666,0,21.334,0,32c-10.666,0.333-21.336,0.668-32.002,1.001
			C468.771,575.012,487.354,555.491,500.002,554.696L500.002,554.696z"/>
	</defs>
	<use xlink:href="#SVGID_1_"  overflow="visible" fill="#FFFFFF"/>
	<clipPath id="SVGID_2_">
		<use xlink:href="#SVGID_1_"  overflow="visible"/>
	</clipPath>
</g>
</svg>
